# xmcd
#
# Track frame offsets: 
#        150
#        2151
#        3466
#        4781
#        6096
#        29052
#        50758
#        59189
#        80333
#        89163
#        92181
#        103981
#        124818
#        145680
#        166737
#        189859
#        201872
#        213885
#        226765
#        228592
#        242619
#        258402
#        274185
#        290886
#        302545
#
# Disc length: 4241 seconds
#
# Revision: 0
# Processed by: cddbd v1.5.2PL0 Copyright (c) Steve Scherf et al.
# Submitted via: ExactAudioCopy v0.95b3
#
DISCID=61108f19
DTITLE=The Beatles  - The Sgt Pepper Recording Sessions Reconstructed 
DTITLE=Outtakes and Outfakes - D 4
DYEAR=1900
DGENRE=
TTITLE0=A DAY IN THE LIFE    Edit piece 1-9
TTITLE1=A DAY IN THE LIFE    Edit piece 1-9
TTITLE2=A DAY IN THE LIFE    Edit piece 1-9
TTITLE3=A DAY IN THE LIFE    Edit piece 1-9
TTITLE4=A DAY IN THE LIFE    Mono mix
TTITLE5=A Day In The Life    Rs 1
TTITLE6=A Day In The Life    Rs 2
TTITLE7=A Day In The Life    Rs 3
TTITLE8=A Day In The Life    Rs 4
TTITLE9=A Day In The Life    Rs 5
TTITLE10=A Day In The Life    Rs 6
TTITLE11=A Day In The Life    Rs 7
TTITLE12=A Day In The Life    Rs 8
TTITLE13=A Day In The Life    Rs 9
TTITLE14=A DAY IN THE LIFE     Stereo mix
TTITLE15=LOVELY RITA    Take 8
TTITLE16=LOVELY RITA    SI onto take 8
TTITLE17=LOVELY RITA    SI onto take 9
TTITLE18=A DAY IN THE LIFE    SI onto take 6
TTITLE19=LUCY IN THE SKY WITH DIAMONDS    Takes 6, 7, and 8
TTITLE20=LUCY IN THE SKY WITH DIAMONDS    SI onto take 7
TTITLE21=LUCY IN THE SKY WITH DIAMONDS    SI onto take 8
TTITLE22=LUCY IN THE SKY WITH DIAMONDS    SI onto take 8
TTITLE23=SGT PEPPERS LONELY HEARTS CLUB BAND     SI onto take 10
TTITLE24=LUCY IN THE SKY WITH DIAMONDS     Mono mix
EXTD=
EXTT0=
EXTT1=
EXTT2=
EXTT3=
EXTT4=
EXTT5=
EXTT6=
EXTT7=
EXTT8=
EXTT9=
EXTT10=
EXTT11=
EXTT12=
EXTT13=
EXTT14=
EXTT15=
EXTT16=
EXTT17=
EXTT18=
EXTT19=
EXTT20=
EXTT21=
EXTT22=
EXTT23=
EXTT24=
PLAYORDER=
